<?xml version="1.0" encoding="utf-8"?>
<!-- Generator: Adobe Illustrator 16.0.0, SVG Export Plug-In . SVG Version: 6.00 Build 0)  -->
<!DOCTYPE svg PUBLIC "-//W3C//DTD SVG 1.1//EN" "http://www.w3.org/Graphics/SVG/1.1/DTD/svg11.dtd">
<svg version="1.1" id="Layer_1" xmlns="http://www.w3.org/2000/svg" xmlns:xlink="http://www.w3.org/1999/xlink" x="0px" y="0px"
	 width="168px" height="40px" viewBox="336.945 79.213 168 40" enable-background="new 336.945 79.213 168 40" xml:space="preserve"
	>
<g id="Layer_x0020_1">
	<path fill="#FFFFFF" d="M501.221,88.993v18.365h-9.534V88.993H501.221z M488.157,85.888v24.576h16.599V85.888H488.157z"/>
	<polygon fill="#FFFFFF" points="365.251,119.077 348.971,96.181 358.262,85.876 352.835,85.876 341.801,97.787 341.801,85.876 
		337.134,85.876 337.134,110.248 341.801,110.248 341.801,104.117 345.704,99.802 359.613,119.165 	"/>
	<path fill="#FFFFFF" d="M377.624,102.169c3.131-1.318,4.836-4.071,4.836-7.903c0-5.358-3.586-8.39-9.883-8.39h-10.17v24.372h4.669
		v-7.172h5.501l0.871-0.036l4.213,7.208h5.321L377.624,102.169z M372.577,98.964h-5.501v-9.012h5.501
		c3.479,0,5.427,1.462,5.427,4.457C378.003,97.47,376.055,98.964,372.577,98.964z"/>
	<path fill="#FFFFFF" d="M410.621,110.248l-10.549-24.372h-4.836l-10.686,24.372h4.843l2.159-5.154h11.905l2.159,5.154h5.01H410.621
		z M397.533,90.861l4.244,10.231h-8.563L397.533,90.861z"/>
	<polygon fill="#FFFFFF" points="430.391,85.876 413.577,85.876 413.577,110.248 418.245,110.248 418.245,100.607 429.278,100.607 
		429.278,96.53 418.245,96.53 418.245,89.952 430.361,89.952 	"/>
	<polygon fill="#FFFFFF" points="451.036,85.876 429.819,85.876 429.863,90.02 438.75,90.02 438.75,110.248 443.449,110.248 
		443.449,90.02 451.036,90.02 	"/>
	<polygon fill="#FFFFFF" points="459.523,85.876 459.523,110.47 454.023,110.47 454.023,85.876 	"/>
	<polygon fill="#FFFFFF" points="474.802,104.273 468.156,85.894 462.237,85.894 471.808,110.258 477.485,110.258 487.162,85.894 
		481.485,85.894 	"/>
	<polygon fill="#3BB3D6" points="459.523,79.26 459.523,84.755 454.023,84.755 454.023,79.26 	"/>
	<polyline fill="none" points="345.026,100.551 350.116,94.911 353.601,92.51 	"/>
	<polygon fill="#3BB3D6" points="365.251,119.077 348.971,96.181 345.704,99.802 359.613,119.165 	"/>
	<path fill="#3BB3D6" d="M492.433,89.36c1.164,0.318,2.247,0.616,3.254,0.891c0.946,0.255,1.831,0.504,2.658,0.728
		c-0.02,2.458-0.037,4.904-0.056,7.319c-0.013,2.402-0.038,4.797-0.056,7.169c-0.821,0.229-1.688,0.473-2.615,0.727
		c-0.983,0.275-2.053,0.566-3.186,0.878c0-2.893,0-5.812,0-8.749c0-2.962,0-5.956,0-8.968V89.36z"/>
	<ellipse fill="#FFFFFF" cx="497.375" cy="98.267" rx="0.43" ry="0.97"/>
</g>
</svg>
